# xmcd
#
# Track frame offsets:
#	150
#	29972
#	46200
#	73465
#	85980
#	113272
#	127115
#	158330
#	173415
#	187242
#	199955
#	212685
#
# Disc length: 3239 seconds
#
# Revision: 1
# Processed by: cddbd v1.5.1PL0 Copyright (c) Steve Scherf et al.
# Submitted via: CDex 1.50Beta5
#
DISCID=ac0ca50c
DTITLE=スーパーラブ - ザッツ・ユーロビート・クラシックス〜ギブ・ミー・ユア・パッション
DYEAR=1996
DGENRE=
TTITLE0=スーパーラブ/ギブ・ミー・ユア・パッション
TTITLE1=ローリー/テイキン・ア・チャンス
TTITLE2=トゥッティ・フルッティ/ロンリー・タイム
TTITLE3=アジア・ギャング/アフリカ
TTITLE4=チップ・チップ/オー・ガイ
TTITLE5=マチスモ/ノック・ダウン
TTITLE6=ミスター・ブラック/マイ・ボディ
TTITLE7=ギャングスターズ/ドゥ・イット・ドゥ・イット
TTITLE8=ボーイズ・ボーイズ・ボーイズ/テディ・ボーイ
TTITLE9=ル・フェラーリ/エレクトリック・マン
TTITLE10=ハッピー・ヤング/エキサイテッド
TTITLE11=マチスモ/ナイス・アンド・スロウ
EXTD=
EXTT0=
EXTT1=
EXTT2=
EXTT3=
EXTT4=
EXTT5=
EXTT6=
EXTT7=
EXTT8=
EXTT9=
EXTT10=
EXTT11=
PLAYORDER=
